<mxfile host="65bd71144e">
    <diagram id="5QJrD5O231vAuSg68Uc6" name="Seite-1">
        <mxGraphModel dx="888" dy="401" grid="1" gridSize="10" guides="1" tooltips="1" connect="1" arrows="1" fold="1" page="1" pageScale="1" pageWidth="827" pageHeight="1169" math="0" shadow="0">
            <root>
                <mxCell id="0"/>
                <mxCell id="1" parent="0"/>
                <mxCell id="z85oMedVbHa-3ZmZ16f7-1" value="&lt;font color=&quot;#000000&quot;&gt;Mode 1&lt;/font&gt;" style="rounded=0;whiteSpace=wrap;html=1;fillColor=#C7C7C7;" parent="1" vertex="1">
                    <mxGeometry width="360" height="120" as="geometry"/>
                </mxCell>
                <mxCell id="z85oMedVbHa-3ZmZ16f7-6" value="&lt;font color=&quot;#000000&quot;&gt;Mode 4&lt;/font&gt;" style="rounded=0;whiteSpace=wrap;html=1;fillColor=#C7C7C7;" parent="1" vertex="1">
                    <mxGeometry x="360" y="120" width="360" height="120" as="geometry"/>
                </mxCell>
                <mxCell id="z85oMedVbHa-3ZmZ16f7-7" value="&lt;font color=&quot;#000000&quot;&gt;Mode 2&lt;/font&gt;" style="rounded=0;whiteSpace=wrap;html=1;fillColor=#C7C7C7;" parent="1" vertex="1">
                    <mxGeometry x="360" width="360" height="120" as="geometry"/>
                </mxCell>
                <mxCell id="z85oMedVbHa-3ZmZ16f7-8" value="&lt;font color=&quot;#000000&quot;&gt;Mode 3&lt;/font&gt;" style="rounded=0;whiteSpace=wrap;html=1;fillColor=#C7C7C7;" parent="1" vertex="1">
                    <mxGeometry y="120" width="360" height="120" as="geometry"/>
                </mxCell>
                <mxCell id="z85oMedVbHa-3ZmZ16f7-12" value="" style="shape=flexArrow;endArrow=classic;startArrow=classic;html=1;rounded=0;fillColor=#76608a;endSize=4;startSize=4;arcSize=20;strokeColor=#432D57;" parent="1" edge="1">
                    <mxGeometry width="100" height="100" relative="1" as="geometry">
                        <mxPoint x="249.71" y="100.28999999999999" as="sourcePoint"/>
                        <mxPoint x="249.71" y="20.29" as="targetPoint"/>
                    </mxGeometry>
                </mxCell>
                <mxCell id="z85oMedVbHa-3ZmZ16f7-32" value="Throttle" style="edgeLabel;html=1;align=center;verticalAlign=middle;resizable=0;points=[];labelBackgroundColor=none;fontColor=#000000;" parent="z85oMedVbHa-3ZmZ16f7-12" vertex="1" connectable="0">
                    <mxGeometry x="0.75" y="-2" relative="1" as="geometry">
                        <mxPoint x="-2" y="-20" as="offset"/>
                    </mxGeometry>
                </mxCell>
                <mxCell id="z85oMedVbHa-3ZmZ16f7-13" value="" style="shape=flexArrow;endArrow=classic;startArrow=classic;html=1;rounded=0;fillColor=#6d8764;endSize=4;startSize=4;arcSize=20;strokeColor=#3A5431;" parent="1" edge="1">
                    <mxGeometry width="100" height="100" relative="1" as="geometry">
                        <mxPoint x="209.71" y="60.29" as="sourcePoint"/>
                        <mxPoint x="289.71" y="60.29" as="targetPoint"/>
                    </mxGeometry>
                </mxCell>
                <mxCell id="z85oMedVbHa-3ZmZ16f7-31" value="Aileron/Roll" style="edgeLabel;html=1;align=center;verticalAlign=middle;resizable=0;points=[];labelBackgroundColor=none;fontColor=#000000;" parent="z85oMedVbHa-3ZmZ16f7-13" vertex="1" connectable="0">
                    <mxGeometry x="0.555" y="-2" relative="1" as="geometry">
                        <mxPoint x="48" y="-2" as="offset"/>
                    </mxGeometry>
                </mxCell>
                <mxCell id="z85oMedVbHa-3ZmZ16f7-14" value="" style="shape=flexArrow;endArrow=classic;startArrow=classic;html=1;rounded=0;fillColor=#76608a;endSize=4;startSize=4;arcSize=20;strokeColor=#432D57;" parent="1" edge="1">
                    <mxGeometry width="100" height="100" relative="1" as="geometry">
                        <mxPoint x="109.24" y="99.86" as="sourcePoint"/>
                        <mxPoint x="109.24" y="19.86" as="targetPoint"/>
                    </mxGeometry>
                </mxCell>
                <mxCell id="z85oMedVbHa-3ZmZ16f7-29" value="Elevator/Pitch" style="edgeLabel;html=1;align=center;verticalAlign=middle;resizable=0;points=[];labelBackgroundColor=none;fontColor=#000000;" parent="z85oMedVbHa-3ZmZ16f7-14" vertex="1" connectable="0">
                    <mxGeometry x="0.77" relative="1" as="geometry">
                        <mxPoint y="-19" as="offset"/>
                    </mxGeometry>
                </mxCell>
                <mxCell id="z85oMedVbHa-3ZmZ16f7-15" value="" style="shape=flexArrow;endArrow=classic;startArrow=classic;html=1;rounded=0;fillColor=#6d8764;endSize=4;startSize=4;arcSize=20;strokeColor=#3A5431;" parent="1" edge="1">
                    <mxGeometry width="100" height="100" relative="1" as="geometry">
                        <mxPoint x="69.24" y="59.86" as="sourcePoint"/>
                        <mxPoint x="149.24" y="59.86" as="targetPoint"/>
                    </mxGeometry>
                </mxCell>
                <mxCell id="z85oMedVbHa-3ZmZ16f7-30" value="Rudder/Yaw" style="edgeLabel;html=1;align=center;verticalAlign=middle;resizable=0;points=[];labelBackgroundColor=none;fontColor=#000000;" parent="z85oMedVbHa-3ZmZ16f7-15" vertex="1" connectable="0">
                    <mxGeometry x="-0.435" relative="1" as="geometry">
                        <mxPoint x="-52" as="offset"/>
                    </mxGeometry>
                </mxCell>
                <mxCell id="z85oMedVbHa-3ZmZ16f7-16" value="" style="shape=flexArrow;endArrow=classic;startArrow=classic;html=1;rounded=0;fillColor=#76608a;endSize=4;startSize=4;arcSize=20;strokeColor=#432D57;" parent="1" edge="1">
                    <mxGeometry width="100" height="100" relative="1" as="geometry">
                        <mxPoint x="110" y="220" as="sourcePoint"/>
                        <mxPoint x="110" y="140" as="targetPoint"/>
                    </mxGeometry>
                </mxCell>
                <mxCell id="z85oMedVbHa-3ZmZ16f7-43" value="Elevator/Pitch" style="edgeLabel;html=1;align=center;verticalAlign=middle;resizable=0;points=[];labelBackgroundColor=none;fontColor=#000000;" parent="z85oMedVbHa-3ZmZ16f7-16" vertex="1" connectable="0">
                    <mxGeometry x="0.6917" y="-1" relative="1" as="geometry">
                        <mxPoint y="-22" as="offset"/>
                    </mxGeometry>
                </mxCell>
                <mxCell id="z85oMedVbHa-3ZmZ16f7-17" value="" style="shape=flexArrow;endArrow=classic;startArrow=classic;html=1;rounded=0;fillColor=#6d8764;endSize=4;startSize=4;arcSize=20;strokeColor=#3A5431;" parent="1" edge="1">
                    <mxGeometry width="100" height="100" relative="1" as="geometry">
                        <mxPoint x="70" y="180" as="sourcePoint"/>
                        <mxPoint x="150" y="180" as="targetPoint"/>
                    </mxGeometry>
                </mxCell>
                <mxCell id="z85oMedVbHa-3ZmZ16f7-44" value="Aileron/Roll" style="edgeLabel;html=1;align=center;verticalAlign=middle;resizable=0;points=[];labelBackgroundColor=none;fontColor=#000000;" parent="z85oMedVbHa-3ZmZ16f7-17" vertex="1" connectable="0">
                    <mxGeometry x="-0.8667" y="-1" relative="1" as="geometry">
                        <mxPoint x="-35" y="-1" as="offset"/>
                    </mxGeometry>
                </mxCell>
                <mxCell id="z85oMedVbHa-3ZmZ16f7-18" value="" style="shape=flexArrow;endArrow=classic;startArrow=classic;html=1;rounded=0;fillColor=#76608a;endSize=4;startSize=4;arcSize=20;strokeColor=#432D57;" parent="1" edge="1">
                    <mxGeometry width="100" height="100" relative="1" as="geometry">
                        <mxPoint x="250" y="220" as="sourcePoint"/>
                        <mxPoint x="250" y="140" as="targetPoint"/>
                    </mxGeometry>
                </mxCell>
                <mxCell id="z85oMedVbHa-3ZmZ16f7-41" value="Throttle" style="edgeLabel;html=1;align=center;verticalAlign=middle;resizable=0;points=[];labelBackgroundColor=none;fontColor=#000000;" parent="z85oMedVbHa-3ZmZ16f7-18" vertex="1" connectable="0">
                    <mxGeometry x="0.725" y="-4" relative="1" as="geometry">
                        <mxPoint x="-4" y="-21" as="offset"/>
                    </mxGeometry>
                </mxCell>
                <mxCell id="z85oMedVbHa-3ZmZ16f7-19" value="" style="shape=flexArrow;endArrow=classic;startArrow=classic;html=1;rounded=0;fillColor=#6d8764;endSize=4;startSize=4;arcSize=20;strokeColor=#3A5431;" parent="1" edge="1">
                    <mxGeometry width="100" height="100" relative="1" as="geometry">
                        <mxPoint x="210" y="180" as="sourcePoint"/>
                        <mxPoint x="290" y="180" as="targetPoint"/>
                    </mxGeometry>
                </mxCell>
                <mxCell id="z85oMedVbHa-3ZmZ16f7-42" value="Rudder/Yaw" style="edgeLabel;html=1;align=center;verticalAlign=middle;resizable=0;points=[];labelBackgroundColor=none;fontColor=#000000;" parent="z85oMedVbHa-3ZmZ16f7-19" vertex="1" connectable="0">
                    <mxGeometry x="0.7917" y="2" relative="1" as="geometry">
                        <mxPoint x="38" y="2" as="offset"/>
                    </mxGeometry>
                </mxCell>
                <mxCell id="z85oMedVbHa-3ZmZ16f7-20" value="" style="shape=flexArrow;endArrow=classic;startArrow=classic;html=1;rounded=0;fillColor=#76608a;endSize=4;startSize=4;arcSize=20;strokeColor=#432D57;" parent="1" edge="1">
                    <mxGeometry width="100" height="100" relative="1" as="geometry">
                        <mxPoint x="470" y="220" as="sourcePoint"/>
                        <mxPoint x="470" y="140" as="targetPoint"/>
                    </mxGeometry>
                </mxCell>
                <mxCell id="z85oMedVbHa-3ZmZ16f7-39" value="Throttle" style="edgeLabel;html=1;align=center;verticalAlign=middle;resizable=0;points=[];labelBackgroundColor=none;fontColor=#000000;" parent="z85oMedVbHa-3ZmZ16f7-20" vertex="1" connectable="0">
                    <mxGeometry x="0.7667" y="-4" relative="1" as="geometry">
                        <mxPoint x="-4" y="-19" as="offset"/>
                    </mxGeometry>
                </mxCell>
                <mxCell id="z85oMedVbHa-3ZmZ16f7-21" value="" style="shape=flexArrow;endArrow=classic;startArrow=classic;html=1;rounded=0;fillColor=#6d8764;endSize=4;startSize=4;arcSize=20;strokeColor=#3A5431;" parent="1" edge="1">
                    <mxGeometry width="100" height="100" relative="1" as="geometry">
                        <mxPoint x="430" y="180" as="sourcePoint"/>
                        <mxPoint x="509.99999999999994" y="180" as="targetPoint"/>
                    </mxGeometry>
                </mxCell>
                <mxCell id="z85oMedVbHa-3ZmZ16f7-40" value="Aileron/Roll" style="edgeLabel;html=1;align=center;verticalAlign=middle;resizable=0;points=[];labelBackgroundColor=none;fontColor=#000000;" parent="z85oMedVbHa-3ZmZ16f7-21" vertex="1" connectable="0">
                    <mxGeometry x="-0.7833" y="4" relative="1" as="geometry">
                        <mxPoint x="-39" y="4" as="offset"/>
                    </mxGeometry>
                </mxCell>
                <mxCell id="z85oMedVbHa-3ZmZ16f7-22" value="" style="shape=flexArrow;endArrow=classic;startArrow=classic;html=1;rounded=0;fillColor=#76608a;endSize=4;startSize=4;arcSize=20;strokeColor=#432D57;" parent="1" edge="1">
                    <mxGeometry width="100" height="100" relative="1" as="geometry">
                        <mxPoint x="610" y="220" as="sourcePoint"/>
                        <mxPoint x="610" y="140" as="targetPoint"/>
                    </mxGeometry>
                </mxCell>
                <mxCell id="z85oMedVbHa-3ZmZ16f7-38" value="Elevator/Pitch" style="edgeLabel;html=1;align=center;verticalAlign=middle;resizable=0;points=[];labelBackgroundColor=none;fontColor=#000000;" parent="z85oMedVbHa-3ZmZ16f7-22" vertex="1" connectable="0">
                    <mxGeometry x="0.775" y="-1" relative="1" as="geometry">
                        <mxPoint y="-19" as="offset"/>
                    </mxGeometry>
                </mxCell>
                <mxCell id="z85oMedVbHa-3ZmZ16f7-23" value="" style="shape=flexArrow;endArrow=classic;startArrow=classic;html=1;rounded=0;fillColor=#6d8764;endSize=4;startSize=4;arcSize=20;strokeColor=#3A5431;" parent="1" edge="1">
                    <mxGeometry width="100" height="100" relative="1" as="geometry">
                        <mxPoint x="570" y="180" as="sourcePoint"/>
                        <mxPoint x="650" y="180" as="targetPoint"/>
                    </mxGeometry>
                </mxCell>
                <mxCell id="z85oMedVbHa-3ZmZ16f7-37" value="Rudder/Yaw" style="edgeLabel;html=1;align=center;verticalAlign=middle;resizable=0;points=[];labelBackgroundColor=none;fontColor=#000000;" parent="z85oMedVbHa-3ZmZ16f7-23" vertex="1" connectable="0">
                    <mxGeometry x="0.775" y="-1" relative="1" as="geometry">
                        <mxPoint x="39" y="-1" as="offset"/>
                    </mxGeometry>
                </mxCell>
                <mxCell id="z85oMedVbHa-3ZmZ16f7-24" value="" style="shape=flexArrow;endArrow=classic;startArrow=classic;html=1;rounded=0;fillColor=#76608a;endSize=4;startSize=4;arcSize=20;strokeColor=#432D57;" parent="1" edge="1">
                    <mxGeometry width="100" height="100" relative="1" as="geometry">
                        <mxPoint x="610" y="100" as="sourcePoint"/>
                        <mxPoint x="610" y="20" as="targetPoint"/>
                    </mxGeometry>
                </mxCell>
                <mxCell id="z85oMedVbHa-3ZmZ16f7-35" value="Elevator/Pitch" style="edgeLabel;html=1;align=center;verticalAlign=middle;resizable=0;points=[];labelBackgroundColor=none;fontColor=#000000;" parent="z85oMedVbHa-3ZmZ16f7-24" vertex="1" connectable="0">
                    <mxGeometry x="0.75" y="-3" relative="1" as="geometry">
                        <mxPoint x="-3" y="-20" as="offset"/>
                    </mxGeometry>
                </mxCell>
                <mxCell id="z85oMedVbHa-3ZmZ16f7-25" value="" style="shape=flexArrow;endArrow=classic;startArrow=classic;html=1;rounded=0;fillColor=#6d8764;endSize=4;startSize=4;arcSize=20;strokeColor=#3A5431;" parent="1" edge="1">
                    <mxGeometry width="100" height="100" relative="1" as="geometry">
                        <mxPoint x="570" y="60" as="sourcePoint"/>
                        <mxPoint x="650" y="60" as="targetPoint"/>
                    </mxGeometry>
                </mxCell>
                <mxCell id="z85oMedVbHa-3ZmZ16f7-36" value="Aileron/Roll" style="edgeLabel;html=1;align=center;verticalAlign=middle;resizable=0;points=[];labelBackgroundColor=none;fontColor=#000000;" parent="z85oMedVbHa-3ZmZ16f7-25" vertex="1" connectable="0">
                    <mxGeometry x="0.325" y="-2" relative="1" as="geometry">
                        <mxPoint x="57" y="-2" as="offset"/>
                    </mxGeometry>
                </mxCell>
                <mxCell id="z85oMedVbHa-3ZmZ16f7-26" value="" style="shape=flexArrow;endArrow=classic;startArrow=classic;html=1;rounded=0;fillColor=#76608a;endSize=4;startSize=4;arcSize=20;strokeColor=#432D57;" parent="1" edge="1">
                    <mxGeometry width="100" height="100" relative="1" as="geometry">
                        <mxPoint x="469.99999999999994" y="100" as="sourcePoint"/>
                        <mxPoint x="469.99999999999994" y="20" as="targetPoint"/>
                    </mxGeometry>
                </mxCell>
                <mxCell id="z85oMedVbHa-3ZmZ16f7-33" value="&lt;font color=&quot;#000000&quot;&gt;Throttle&lt;/font&gt;" style="edgeLabel;html=1;align=center;verticalAlign=middle;resizable=0;points=[];labelBackgroundColor=none;" parent="z85oMedVbHa-3ZmZ16f7-26" vertex="1" connectable="0">
                    <mxGeometry x="0.7667" y="-5" relative="1" as="geometry">
                        <mxPoint x="-5" y="-19" as="offset"/>
                    </mxGeometry>
                </mxCell>
                <mxCell id="z85oMedVbHa-3ZmZ16f7-27" value="" style="shape=flexArrow;endArrow=classic;startArrow=classic;html=1;rounded=0;fillColor=#6d8764;endSize=4;startSize=4;arcSize=20;strokeColor=#3A5431;" parent="1" edge="1">
                    <mxGeometry width="100" height="100" relative="1" as="geometry">
                        <mxPoint x="429.99999999999994" y="60" as="sourcePoint"/>
                        <mxPoint x="509.99999999999994" y="60" as="targetPoint"/>
                    </mxGeometry>
                </mxCell>
                <mxCell id="z85oMedVbHa-3ZmZ16f7-34" value="Rudder/Yaw" style="edgeLabel;html=1;align=center;verticalAlign=middle;resizable=0;points=[];labelBackgroundColor=none;fontColor=#00000;" parent="z85oMedVbHa-3ZmZ16f7-27" vertex="1" connectable="0">
                    <mxGeometry x="-0.725" y="-1" relative="1" as="geometry">
                        <mxPoint x="-41" y="-1" as="offset"/>
                    </mxGeometry>
                </mxCell>
            </root>
        </mxGraphModel>
    </diagram>
</mxfile>